<?xml version="1.0" encoding="iso-8859-1"?>
<!-- Generator: Adobe Illustrator 19.0.0, SVG Export Plug-In . SVG Version: 6.00 Build 0)  -->
<svg version="1.1" id="Layer_1" xmlns="http://www.w3.org/2000/svg" xmlns:xlink="http://www.w3.org/1999/xlink" x="0px" y="0px"
	 viewBox="0 0 512 512" style="enable-background:new 0 0 512 512;" xml:space="preserve">
<path style="fill:#E7ECED;" d="M256,7.918c137.015,0,248.082,111.067,248.082,248.082S393.015,504.082,256,504.082
	S7.918,393.015,7.918,256S118.985,7.918,256,7.918z"/>
<path d="M256,512c-68.381,0-132.669-26.628-181.021-74.979S0,324.381,0,256S26.628,123.331,74.979,74.979S187.619,0,256,0
	s132.669,26.628,181.021,74.979S512,187.619,512,256s-26.628,132.669-74.979,181.021S324.381,512,256,512z M256,15.835
	c-64.152,0-124.462,24.981-169.824,70.341C40.816,131.538,15.835,191.848,15.835,256s24.981,124.462,70.341,169.824
	c45.361,45.36,105.672,70.341,169.824,70.341s124.462-24.981,169.824-70.341c45.36-45.361,70.341-105.672,70.341-169.824
	s-24.981-124.462-70.341-169.824C380.462,40.816,320.152,15.835,256,15.835z"/>
<polygon style="fill:#F4411E;" points="409.072,192.66 409.072,319.34 319.34,319.34 319.34,409.072 192.66,409.072 192.66,319.34 
	102.928,319.34 102.928,192.66 192.66,192.66 192.66,102.928 319.34,102.928 319.34,192.66 "/>
<path d="M327.258,416.99H184.742v-89.732H95.01V184.742h89.732V95.01h142.515v89.732h89.732v142.515h-89.732V416.99z
	 M200.577,401.155h110.845v-89.732h89.732V200.577h-89.732v-89.732H200.577v89.732h-89.732v110.845h89.732V401.155z"/>
<rect x="245.443" y="42.227" width="21.113" height="15.835"/>
<rect x="245.443" y="453.938" width="21.113" height="15.835"/>
<rect x="39.588" y="248.082" width="21.113" height="15.835"/>
<rect x="451.299" y="248.082" width="21.113" height="15.835"/>
<g>
</g>
<g>
</g>
<g>
</g>
<g>
</g>
<g>
</g>
<g>
</g>
<g>
</g>
<g>
</g>
<g>
</g>
<g>
</g>
<g>
</g>
<g>
</g>
<g>
</g>
<g>
</g>
<g>
</g>
</svg>
