<?xml version="1.0" encoding="iso-8859-1"?>
<!-- Generator: Adobe Illustrator 19.0.0, SVG Export Plug-In . SVG Version: 6.00 Build 0)  -->
<svg version="1.1" id="Layer_1" xmlns="http://www.w3.org/2000/svg" xmlns:xlink="http://www.w3.org/1999/xlink" x="0px" y="0px"
	 viewBox="0 0 512 512" style="enable-background:new 0 0 512 512;" xml:space="preserve">
<path style="fill:#B5A088;" d="M78.141,46.782h354.99c-4.889-21.901-24.429-38.281-47.806-38.281H125.948
	C102.569,8.501,83.029,24.881,78.141,46.782z"/>
<path style="fill:#967B60;" d="M163.747,8.501h-37.799c-23.378,0-42.919,16.38-47.808,38.281h37.799
	C120.828,24.881,140.368,8.501,163.747,8.501z"/>
<path style="fill:#D4C8B9;" d="M449.901,45.782H62.333c-19.311,0-34.969,15.658-34.969,34.969v409.377
	c0,7.937,6.436,14.372,14.374,14.372h428.761c7.938,0,14.372-6.435,14.372-14.372V80.751
	C484.87,61.441,469.214,45.782,449.901,45.782z"/>
<path style="fill:#BCA791;" d="M52.365,490.128V80.751c0-19.311,15.657-34.969,34.969-34.969H62.333
	c-19.311,0-34.969,15.658-34.969,34.969v409.377c0,7.937,6.436,14.372,14.374,14.372h25.002
	C58.802,504.5,52.365,498.064,52.365,490.128z"/>
<path style="fill:#B5A088;" d="M365.707,94.888c0,7.276-5.898,13.175-13.175,13.175H159.702c-7.275,0-13.175-5.897-13.175-13.175
	l0,0c0-7.276,5.898-13.174,13.175-13.174h192.83C359.808,81.714,365.707,87.611,365.707,94.888L365.707,94.888z"/>
<rect x="87.065" y="197.892" style="fill:#E5E5E5;" width="340.441" height="306.609"/>
<rect x="87.065" y="197.892" style="fill:#C8CACE;" width="25.002" height="306.609"/>
<rect x="87.065" y="196.562" style="fill:#A9ADBF;" width="340.441" height="57.89"/>
<rect x="87.065" y="196.562" style="fill:#8E94A8;" width="25.002" height="57.89"/>
<path style="fill:#676872;" d="M441.161,183.517c0,7.937-6.434,14.372-14.372,14.372H85.445c-7.938,0-14.372-6.434-14.372-14.372
	v-26.35c0-7.937,6.434-14.372,14.372-14.372h341.343c7.938,0,14.372,6.435,14.372,14.372v26.35H441.161z"/>
<path style="fill:#464856;" d="M426.789,170.342H85.445c-7.735,0-14.026-6.116-14.342-13.773c-0.009,0.2-0.03,0.396-0.03,0.599
	v26.35c0,7.937,6.434,14.372,14.372,14.372h341.343c7.938,0,14.372-6.434,14.372-14.372v-26.35c0-0.202-0.022-0.398-0.03-0.599
	C440.814,164.226,434.524,170.342,426.789,170.342z"/>
<g>
	<circle style="fill:#A9ADBF;" cx="131.108" cy="378.363" r="16.335"/>
	<circle style="fill:#A9ADBF;" cx="381.123" cy="378.363" r="16.335"/>
</g>
<g>
	<path style="fill:#9298AD;" d="M139.146,364.156c-10.856-6.151-24.374,1.702-24.374,14.21c0,12.511,13.521,20.363,24.374,14.209
		C128.096,386.311,128.09,370.424,139.146,364.156z"/>
	<path style="fill:#9298AD;" d="M389.167,364.156c-10.851-6.15-24.373,1.696-24.373,14.21s13.522,20.361,24.373,14.21
		C378.119,386.312,378.11,370.424,389.167,364.156z"/>
</g>
<g>
	<path style="fill:#61626D;" d="M153.139,473.111v21.942c0,5.028,4.076,9.105,9.105,9.105h27.318c5.029,0,9.106-4.076,9.106-9.105
		v-21.942H153.139z"/>
	<path style="fill:#61626D;" d="M312.995,473.111v21.942c0,5.028,4.078,9.105,9.108,9.105h27.317c5.029,0,9.106-4.076,9.106-9.105
		v-21.942H312.995z"/>
</g>
<g>
	<path style="fill:#353847;" d="M175.904,495.053v-21.942h-22.764v21.942c0,5.028,4.076,9.105,9.105,9.105h22.764
		C179.98,504.158,175.904,500.081,175.904,495.053z"/>
	<path style="fill:#353847;" d="M335.758,495.053v-21.942h-22.764v21.942c0,5.028,4.078,9.105,9.108,9.105h22.764
		C339.837,504.158,335.758,500.081,335.758,495.053z"/>
</g>
<g>
	
		<circle style="fill:none;stroke:#231F20;stroke-width:15;stroke-linecap:round;stroke-linejoin:round;stroke-miterlimit:10;" cx="174.201" cy="434.376" r="16.947"/>
	
		<circle style="fill:none;stroke:#231F20;stroke-width:15;stroke-linecap:round;stroke-linejoin:round;stroke-miterlimit:10;" cx="337.27" cy="434.376" r="16.946"/>
</g>
<path style="fill:#FF8C01;" d="M345.372,398.748H166.29c-15.087,0-27.316,12.23-27.316,27.317v47.047H372.69v-47.047
	C372.69,410.977,360.46,398.748,345.372,398.748z"/>
<g>
	<path style="fill:#ED6306;" d="M191.292,398.748H166.29c-15.087,0-27.316,12.23-27.316,27.317v47.047h25.002v-47.047
		C163.976,410.977,176.205,398.748,191.292,398.748z"/>
	<path style="fill:#ED6306;" d="M301.898,395.625c-0.476-0.585-1.189-0.925-1.941-0.925c-95.392,0-89.116-0.397-90.191,0.925
		c-1.042,1.284-1.118-0.831,6.789,36.765c0.244,1.157,1.265,1.985,2.447,1.985h73.656c1.183,0,2.203-0.828,2.447-1.985l7.295-34.675
		C302.558,396.977,302.372,396.21,301.898,395.625z"/>
</g>
<path style="fill:#DD4705;" d="M241.557,432.389c-7.917-37.643-7.823-35.491-6.789-36.765c0.476-0.585,1.188-0.925,1.941-0.925
	c-26.877,0-25.908-0.349-26.943,0.925c-1.042,1.284-1.118-0.831,6.789,36.765c0.244,1.157,1.265,1.985,2.447,1.985h25.002
	C242.822,434.375,241.801,433.547,241.557,432.389z"/>
<path style="fill:#A9ADBF;" d="M373.127,480.611H138.349c-4.143,0-7.5-3.357-7.5-7.5s3.357-7.5,7.5-7.5h234.778
	c4.143,0,7.5,3.357,7.5,7.5C380.627,477.254,377.27,480.611,373.127,480.611z"/>
<path style="fill:#C8E5FC;" d="M348.071,398.907v-5.249c0-49.567-40.182-89.747-89.747-89.747h-4.982
	c-49.567,0-89.747,40.181-89.747,89.747v5.203C165.571,398.686,345.662,398.649,348.071,398.907z"/>
<path style="fill:#8FC8F2;" d="M188.404,393.658c0-46.216,34.933-84.265,79.834-89.199c-61.464-6.765-104.645,38.057-104.645,89.199
	v5.203c1.726-0.152,0.432-0.113,24.811-0.113V393.658z"/>
<path style="fill:#7CBAE8;" d="M345.127,398.748c0.996,0,1.977,0.056,2.943,0.159v-0.159H345.127z"/>
<g>
	<circle style="fill:#ACD6FC;" cx="174.081" cy="434.376" r="19.001"/>
	<circle style="fill:#ACD6FC;" cx="337.27" cy="434.376" r="19.001"/>
</g>
<path d="M174.078,458.822c13.481,0,24.448-10.967,24.448-24.446c0-13.481-10.968-24.448-24.448-24.448
	c-13.48,0-24.446,10.968-24.446,24.448C149.631,447.855,160.598,458.822,174.078,458.822z M174.078,424.927
	c5.209,0,9.448,4.238,9.448,9.448c0,5.208-4.238,9.446-9.448,9.446c-5.208,0-9.446-4.237-9.446-9.446
	C164.632,429.166,168.869,424.927,174.078,424.927z"/>
<path d="M337.154,458.822c13.48,0,24.446-10.967,24.446-24.446c0-13.481-10.967-24.448-24.446-24.448s-24.447,10.968-24.447,24.448
	C312.707,447.855,323.674,458.822,337.154,458.822z M337.154,424.927c5.208,0,9.446,4.238,9.446,9.448
	c0,5.208-4.237,9.446-9.446,9.446s-9.446-4.237-9.446-9.446C327.708,429.166,331.946,424.927,337.154,424.927z"/>
<path d="M484.753,155.88c4.143,0,7.5-3.357,7.5-7.5V80.751c0-23.417-19.052-42.47-42.47-42.47h-11.117
	C430.964,15.78,409.387,0,385.208,0H125.831c-24.179,0-45.758,15.78-53.461,38.281H62.216c-23.417,0-42.47,19.052-42.47,42.47
	v409.377c0,12.061,9.814,21.872,21.874,21.872c20.16,0,411.62,0,428.76,0c12.061,0,21.872-9.813,21.872-21.872V172.371
	c0-4.143-3.357-7.5-7.5-7.5s-7.5,3.357-7.5,7.5v317.755c0,3.789-3.082,6.871-6.871,6.871h-36.66c0-12.828,0-279.062,0-292.782
	c8.611-2.94,14.823-11.106,14.823-20.7v-26.35c0-12.061-9.813-21.872-21.872-21.872H85.328c-12.061,0-21.872,9.813-21.872,21.872
	v26.35c0,9.427,5.994,17.479,14.372,20.547c0,53.361-0.189,49.829,0.451,51.603v241.332H41.621c-3.79,0-6.873-3.082-6.873-6.871
	V80.751c0-15.147,12.322-27.469,27.469-27.469c10.935,0,370.715,0,387.568,0c15.147,0,27.469,12.322,27.469,27.469v67.629
	C477.253,152.523,480.61,155.88,484.753,155.88z M130.989,387.199c-4.871,0-8.835-3.963-8.835-8.834c0-4.87,3.963-8.834,8.835-8.834
	c4.871,0,8.835,3.963,8.835,8.834C139.823,383.236,135.861,387.199,130.989,387.199z M302.919,391.248h-94.41h-37.498
	c1.278-44.242,37.666-79.837,82.212-79.837h4.982c44.546,0,80.934,35.595,82.212,79.837H302.919z M293.458,406.249l-4.832,20.626
	h-65.823l-4.832-20.626H293.458z M166.173,406.249h36.389l6.99,29.838c0.795,3.391,3.819,5.789,7.303,5.789h77.716
	c3.483,0,6.508-2.397,7.302-5.789l6.991-29.838c41.461,0,35.676-0.05,38.617,0.134c9.881,1.112,17.589,9.51,17.589,19.682v39.546
	c-18.644,0-150.241,0-166.522,0c-83.068,0-30.297,0-52.192,0v-39.546C146.358,415.137,155.246,406.249,166.173,406.249z
	 M350.907,495.052c0,0.885-0.721,1.604-1.605,1.604h-27.316c-0.887,0-1.607-0.72-1.607-1.604v-14.441h30.529v14.441H350.907z
	 M160.523,480.611h30.527v14.441c0,0.885-0.721,1.604-1.605,1.604h-27.318c-0.884,0-1.604-0.72-1.604-1.604V480.611z
	 M206.05,495.052v-14.441h99.326c0,15.957-0.041,14.975,0.124,16.388h-99.575C206.001,496.359,206.05,495.712,206.05,495.052z
	 M78.457,157.168c0-3.789,3.082-6.871,6.871-6.871h341.343c3.789,0,6.871,3.082,6.871,6.871v26.35c0,3.789-3.082,6.871-6.871,6.871
	h-0.451c-1.854,0-338.136,0-340.892,0c-3.789,0-6.871-3.082-6.871-6.871C78.457,183.517,78.457,157.168,78.457,157.168z
	 M93.28,260.626h31.153c4.143,0,7.5-3.357,7.5-7.5c0-4.143-3.357-7.5-7.5-7.5H93.28v-40.235h325.44v40.235H149.773
	c-4.143,0-7.5,3.357-7.5,7.5c0,4.143,3.357,7.5,7.5,7.5h268.946v236.372h-52.936c0.166-1.409,0.124-0.458,0.124-16.388
	c5.743,0,9.39,0,15.103,0c4.143,0,7.5-3.357,7.5-7.5s-3.357-7.5-7.5-7.5h-0.938v-39.546c0-12.25-6.365-23.034-15.957-29.242
	l1.056-0.665c15.294,13.629,39.673,2.755,39.673-17.792c0-13.143-10.692-23.834-23.835-23.834c-15.019,0-26.387,13.817-23.35,28.63
	l-2.613,1.643c-4.488-49.488-46.203-88.395-96.841-88.395h-4.982c-50.522,0-92.163,38.728-96.811,88.054l-2.072-1.304
	c0.317-1.549,0.484-3.153,0.484-4.794c0-13.143-10.692-23.834-23.835-23.834s-23.835,10.692-23.835,23.834
	c0,20.562,24.392,31.409,39.673,17.791l0.768,0.483c-9.749,6.177-16.239,17.054-16.239,29.424v39.546h-3.125
	c-4.143,0-7.5,3.357-7.5,7.5s3.357,7.5,7.5,7.5c22.358,0,3.215,0,17.29,0c0,15.958-0.042,14.978,0.124,16.388H93.28V260.626z
	 M372.176,378.366c0-4.87,3.963-8.834,8.835-8.834s8.835,3.963,8.835,8.834c0,4.87-3.963,8.834-8.835,8.834
	S372.176,383.236,372.176,378.366z M88.564,38.281c6.855-13.91,21.291-23.28,37.266-23.28h259.377
	c15.975,0,30.409,9.371,37.265,23.28H88.564z"/>
<path d="M159.585,74.213c-11.4,0-20.675,9.274-20.675,20.674s9.275,20.675,20.675,20.675h192.83c11.4,0,20.675-9.275,20.675-20.675
	s-9.275-20.674-20.675-20.674H159.585z M358.089,94.888c0,3.129-2.545,5.674-5.674,5.674h-192.83c-3.129,0-5.674-2.545-5.674-5.674
	c0-3.128,2.545-5.673,5.674-5.673h192.83C355.544,89.214,358.089,91.76,358.089,94.888z"/>
<path d="M237.634,233.008h36.731c4.143,0,7.5-3.357,7.5-7.5c0-4.143-3.357-7.5-7.5-7.5h-36.731c-4.143,0-7.5,3.357-7.5,7.5
	C230.134,229.651,233.492,233.008,237.634,233.008z"/>
<g>
</g>
<g>
</g>
<g>
</g>
<g>
</g>
<g>
</g>
<g>
</g>
<g>
</g>
<g>
</g>
<g>
</g>
<g>
</g>
<g>
</g>
<g>
</g>
<g>
</g>
<g>
</g>
<g>
</g>
</svg>
