<?xml version="1.0" encoding="iso-8859-1"?>
<!-- Generator: Adobe Illustrator 19.0.0, SVG Export Plug-In . SVG Version: 6.00 Build 0)  -->
<svg version="1.1" id="Capa_1" xmlns="http://www.w3.org/2000/svg" xmlns:xlink="http://www.w3.org/1999/xlink" x="0px" y="0px"
	 viewBox="0 0 511.999 511.999" style="enable-background:new 0 0 511.999 511.999;" xml:space="preserve">
<path style="fill:#2E88CC;" d="M494.818,339.156l-3.244,5.607l-44.154,76.476c-4.137,7.158-13.282,9.611-20.439,5.485l-86.178-49.75
	c-9.976-5.769-22.447,1.44-22.447,12.957v99.5c0,8.263-6.702,14.965-14.965,14.965h-94.786c-8.263,0-14.965-6.702-14.965-14.965
	v-99.5c0-11.517-12.47-18.726-22.447-12.957l-86.168,49.75c-7.158,4.126-16.313,1.673-20.45-5.485l-47.388-82.082
	c-4.137-7.158-1.683-16.313,5.475-20.45l86.168-49.75c9.976-5.759,9.976-20.156,0-25.914l-86.168-49.75
	c-7.158-4.137-9.611-13.292-5.475-20.45L64.575,90.76c4.137-7.158,13.292-9.611,20.45-5.475l86.168,49.75
	c9.976,5.759,22.447-1.44,22.447-12.967v-99.5c0-8.263,6.702-14.965,14.965-14.965h94.786c8.263,0,14.965,6.702,14.965,14.965v99.5
	c0,11.528,12.47,18.726,22.447,12.967l86.178-49.75c7.158-4.137,16.303-1.683,20.439,5.475l47.398,82.082
	c4.126,7.158,1.673,16.313-5.485,20.45l-86.168,49.75c-9.976,5.759-9.976,20.156,0,25.914l86.168,49.75
	C496.49,322.843,498.944,331.998,494.818,339.156z"/>
<path style="fill:#2279AF;" d="M491.573,344.763l-44.154,76.476c-4.137,7.158-13.282,9.611-20.439,5.485l-86.178-49.75
	c-9.976-5.769-22.447,1.44-22.447,12.957v99.5c0,8.263-6.702,14.965-14.965,14.965h-94.786c-8.263,0-14.965-6.702-14.965-14.965
	v-99.5c0-11.517-12.47-18.726-22.447-12.957l-86.168,49.75c-7.158,4.126-16.313,1.673-20.45-5.485l-47.388-82.082
	c-4.137-7.158-1.683-16.313,5.475-20.45l86.168-49.75c9.976-5.759,9.976-20.156,0-25.914l-86.168-49.75
	c-7.158-4.137-9.611-13.292-5.475-20.45L64.575,90.76c4.137-7.158,13.292-9.611,20.45-5.475l86.168,49.75
	c9.976,5.759,22.447-1.44,22.447-12.967v-99.5c0-8.263,6.702-14.965,14.965-14.965C208.604,115.691,202.055,308.274,491.573,344.763
	z"/>
<path d="M493.138,312.125l-86.169-49.75c-3.321-1.918-3.681-5.098-3.681-6.376c0-1.278,0.359-4.457,3.681-6.376l86.169-49.75
	c5.22-3.014,8.955-7.881,10.516-13.704s0.76-11.906-2.255-17.126l-47.393-82.087c-3.014-5.22-7.881-8.955-13.705-10.516
	c-5.825-1.56-11.905-0.759-17.126,2.255l-86.17,49.75c-3.322,1.918-6.256,0.639-7.362,0c-1.107-0.639-3.681-2.539-3.681-6.375
	V67.695c0-4.199-3.404-7.604-7.604-7.604s-7.604,3.405-7.604,7.604v54.375c0,8.16,4.219,15.465,11.285,19.545
	c7.067,4.081,15.505,4.08,22.57,0l86.17-49.75c1.704-0.983,3.686-1.245,5.586-0.735c1.9,0.509,3.487,1.727,4.47,3.43l47.393,82.087
	c0.983,1.703,1.245,3.686,0.736,5.586c-0.509,1.9-1.728,3.487-3.431,4.47l-86.169,49.75c-7.067,4.08-11.285,11.387-11.285,19.546
	c0,8.16,4.219,15.466,11.285,19.546l86.169,49.75c1.703,0.983,2.922,2.571,3.431,4.47c0.509,1.899,0.247,3.883-0.736,5.586
	l-47.393,82.087c-0.983,1.703-2.57,2.921-4.47,3.43c-1.9,0.508-3.882,0.248-5.586-0.736l-86.17-49.75
	c-7.067-4.079-15.503-4.079-22.57,0c-7.067,4.08-11.285,11.386-11.285,19.545v99.5c0,4.06-3.302,7.362-7.362,7.362h-94.786
	c-4.06,0-7.362-3.302-7.362-7.362v-99.5c0-8.16-4.219-15.465-11.285-19.545c-7.067-4.08-15.505-4.079-22.57,0l-41.198,23.785
	c-3.637,2.1-4.883,6.75-2.783,10.387c2.099,3.638,6.751,4.884,10.387,2.783l41.198-23.785c3.323-1.918,6.256-0.639,7.362,0
	c1.107,0.639,3.681,2.539,3.681,6.375v99.5c0,12.445,10.124,22.57,22.57,22.57h94.786c12.444,0,22.57-10.124,22.57-22.57v-99.5
	c0-3.836,2.574-5.736,3.681-6.375c1.106-0.639,4.04-1.918,7.362,0l86.17,49.75c5.22,3.014,11.304,3.815,17.126,2.255
	c5.824-1.56,10.691-5.295,13.705-10.516l47.393-82.087c3.015-5.22,3.815-11.303,2.255-17.126S498.358,315.14,493.138,312.125z"/>
<path d="M107.677,404.859L81.22,420.134c-3.516,2.028-8.027,0.821-10.056-2.695L23.77,335.352c-0.983-1.703-1.245-3.686-0.736-5.586
	s1.728-3.487,3.431-4.47l86.169-49.75c7.067-4.08,11.285-11.387,11.285-19.546c0-8.16-4.219-15.466-11.285-19.546l-86.169-49.75
	c-1.703-0.983-2.922-2.571-3.431-4.47c-0.509-1.899-0.247-3.883,0.736-5.586l47.393-82.087c2.031-3.514,6.539-4.724,10.056-2.695
	l86.17,49.75c7.067,4.08,15.503,4.08,22.57,0c7.067-4.08,11.285-11.386,11.285-19.545v-99.5c0-4.06,3.302-7.362,7.362-7.362h94.786
	c4.06,0,7.362,3.302,7.362,7.362v19.776c0,4.199,3.404,7.604,7.604,7.604c4.2,0,7.604-3.405,7.604-7.604V22.57
	c0-12.445-10.124-22.57-22.57-22.57h-94.786c-12.444,0-22.57,10.124-22.57,22.57v99.5c0,3.836-2.574,5.736-3.681,6.375
	c-1.106,0.639-4.04,1.918-7.362,0l-86.17-49.749c-10.778-6.223-24.608-2.515-30.831,8.261L10.6,169.044
	c-3.015,5.22-3.815,11.303-2.255,17.126s5.295,10.69,10.516,13.704l86.169,49.75c3.322,1.918,3.681,5.098,3.681,6.376
	c0,1.278-0.359,4.457-3.681,6.376l-86.169,49.75c-5.22,3.014-8.955,7.881-10.516,13.704s-0.76,11.906,2.255,17.126l47.393,82.087
	c4.175,7.233,11.777,11.28,19.584,11.28c3.825,0,7.702-0.972,11.247-3.019l26.457-15.275c3.637-2.1,4.883-6.75,2.783-10.387
	C115.963,404.006,111.311,402.76,107.677,404.859z"/>
<g>
</g>
<g>
</g>
<g>
</g>
<g>
</g>
<g>
</g>
<g>
</g>
<g>
</g>
<g>
</g>
<g>
</g>
<g>
</g>
<g>
</g>
<g>
</g>
<g>
</g>
<g>
</g>
<g>
</g>
</svg>
